<?xml version="1.0" encoding="UTF-8" standalone="no"?>
<!DOCTYPE svg PUBLIC "-//W3C//DTD SVG 1.1//EN" "http://www.w3.org/Graphics/SVG/1.1/DTD/svg11.dtd">
<svg width="100%" height="100%" viewBox="0 0 246 289" version="1.1" xmlns="http://www.w3.org/2000/svg" xmlns:xlink="http://www.w3.org/1999/xlink" xml:space="preserve" xmlns:serif="http://www.serif.com/" style="fill-rule:evenodd;clip-rule:evenodd;stroke-linejoin:round;stroke-miterlimit:2;">
    <g transform="matrix(1,0,0,1,-150.397,-340.697)">
        <g id="L4" transform="matrix(0.365835,0,0,0.365835,75.4978,266.123)">
            <g transform="matrix(1.48951,0,0,-1.48951,99.9305,1519.93)">
                <path d="M424.084,472.849C424.084,472.849 449.476,404.707 461.74,371.793C463.216,367.835 462.659,363.405 460.251,359.934C457.843,356.463 453.888,354.391 449.663,354.388C449.663,354.388 449.662,354.388 449.661,354.388C442.873,354.381 436.795,358.592 434.415,364.949C424.572,391.242 399.778,457.477 399.778,457.477C408.122,461.992 416.225,467.115 424.084,472.849Z" style="fill:rgb(255,0,0);"/>
            </g>
            <g transform="matrix(-2.73618e-16,1.48951,1.48951,2.73618e-16,18.1403,199.631)">
                <path d="M424.084,472.849C424.084,472.849 449.329,405.101 461.634,372.08C463.133,368.056 462.567,363.553 460.119,360.025C457.672,356.497 453.651,354.391 449.357,354.387C449.356,354.387 449.355,354.387 449.353,354.387C442.734,354.381 436.792,358.442 434.393,364.612L393.064,470.904C401.409,475.419 416.225,467.115 424.084,472.849Z" style="fill:rgb(255,0,0);"/>
            </g>
            <g transform="matrix(1.48951,0,0,-1.48951,99.9305,1519.93)">
                <path d="M169.84,471.626C177.637,466.151 185.644,461.246 193.866,456.919C193.866,456.919 165.936,386.833 156.28,362.604C154.324,357.696 149.58,354.471 144.296,354.458C144.296,354.458 144.295,354.458 144.294,354.458C139.449,354.446 134.915,356.844 132.197,360.856C129.48,364.868 128.935,369.968 130.744,374.463C144.22,407.954 169.84,471.626 169.84,471.626Z" style="fill:rgb(255,0,0);"/>
            </g>
            <g transform="matrix(1.48951,0,0,-1.48951,99.9305,1519.93)">
                <path d="M415.18,496.743L339.476,699.903C333.493,715.958 318.259,726.685 301.128,726.906C283.996,727.128 268.49,716.798 262.094,700.903C226.223,611.753 179.189,494.862 179.189,494.862C186.832,489.213 194.777,484.218 203.012,479.871L300.15,723.621L390.987,480.96C399.35,485.534 407.414,490.798 415.18,496.743Z" style="fill:rgb(255,0,0);"/>
            </g>
            <g transform="matrix(1.48951,0,0,1.48951,2.23441,-313.398)">
                <path d="M235.429,759.201C224.266,751.387 213.537,742.39 203.238,732.228C158.38,687.965 135.95,635.266 135.95,574.132C135.95,512.6 158.082,459.405 202.345,414.547C246.608,369.688 299.306,347.259 360.441,347.259C422.369,347.259 475.465,369.49 519.728,413.951C563.991,458.413 586.122,511.012 586.122,571.75C586.122,633.281 564.189,686.476 520.323,731.334C510.546,741.333 500.329,750.218 489.673,757.979C489.673,757.979 473.977,740.898 480.77,734.085C519.019,695.72 559.326,629.497 559.326,572.643C559.326,517.382 540.102,470.469 501.655,431.904C463.207,393.338 416.235,374.055 360.739,374.055C304.852,374.055 257.881,393.237 219.827,431.601C181.773,469.965 162.746,517.575 162.746,574.429C162.746,629.293 181.97,676.107 220.418,714.871C228.181,722.697 236.299,729.734 244.779,735.966L235.429,759.201Z"/>
            </g>
            <g transform="matrix(1.48951,0,0,1.48951,2.23441,-313.398)">
                <path d="M244.779,735.966C252.428,741.608 260.367,746.606 268.602,750.956L259.455,773.908C251.233,769.581 243.222,764.681 235.429,759.201L244.779,735.966Z"/>
            </g>
            <g transform="matrix(1.48951,0,0,1.48951,2.23441,-313.398)">
                <path d="M480.77,734.085L489.673,757.979C481.813,763.713 473.714,768.84 465.368,773.35L456.577,749.867C464.944,745.292 473.011,740.033 480.77,734.085Z" style="fill:rgb(255,0,0);"/>
            </g>
            <g transform="matrix(1,0,0,1,0,57.9628)">
                <path d="M546.006,385.125L572.132,326.74L719.344,722.062C719.344,722.062 688.468,741.916 679.308,741.57L546.006,385.125Z" style="fill:white;"/>
            </g>
            <g transform="matrix(1.07285,0,0,1.07285,-29.8551,40.34)">
                <g transform="matrix(0.999893,-0.0146466,0.0146466,0.999893,-9.26452,24.4341)">
                    <g>
                        <g transform="matrix(-7.79169,1.73082,-1.73082,-7.79169,2752.4,1888.93)">
                            <path d="M235.843,212.783C231.933,207.936 224.634,205.908 219.081,209.056C214.723,211.527 213.841,217.157 214.518,221.65C215.293,226.803 221.942,228.418 223.596,222.901C224.575,219.638 222.745,214.849 219.04,218.031C218.547,218.454 219.097,220.727 219.256,220.588C220.42,219.577 221.638,218.868 222.863,220.158C224.568,221.953 220.386,223.603 219.45,223.843C217.576,224.321 216.104,223.058 215.319,221.502C213.723,218.34 215.744,214.69 217.868,212.457C222.805,207.267 230.93,209.208 235.831,213.122L235.843,212.783Z"/>
                        </g>
                        <g transform="matrix(-7.79169,1.73082,-1.73082,-7.79169,2752.4,1888.93)">
                            <path d="M221.313,213.841C225.502,214.109 231.159,218.088 227.074,223.346C225.503,225.368 223.177,226.367 221.783,228.646C220.56,230.644 220.697,235 222.12,236.87C224.762,240.34 229.326,238.012 229.466,234.045C229.547,231.752 228.45,227.032 225.418,229.801C224.846,230.324 225.387,233.411 225.706,233.184C227.102,232.189 229.894,232.566 226.791,234.48C224.294,236.02 220.711,233.965 222.497,230.844C224.234,227.809 227.541,226.515 228.551,222.974C229.962,218.028 226.944,212.161 221.303,213.411L221.313,213.841Z"/>
                        </g>
                    </g>
                </g>
                <g transform="matrix(0.76779,0.640702,-0.640702,0.76779,434.978,-255.843)">
                    <g transform="matrix(-4.73524,5.73391,-5.73391,-4.73524,2866.56,297.192)">
                        <path d="M213.227,231.482C213.175,230.344 212.505,229.305 211.646,228.582C211.811,228.59 211.978,228.597 212.143,228.605C211.349,229.274 210.737,230.234 210.6,231.267C210.446,232.4 211.351,233.613 212.174,234.304C212.008,234.297 211.841,234.289 211.675,234.282C212.536,233.558 213.179,232.505 213.231,231.373C213.257,230.848 214.059,230.996 214.036,231.514C213.974,232.863 213.159,234.097 212.143,234.95C212.004,235.067 211.777,235.037 211.646,234.928C210.63,234.074 209.841,232.825 209.779,231.482C209.718,230.123 210.678,228.775 211.675,227.936C211.815,227.82 212.042,227.85 212.173,227.958C213.188,228.813 213.978,230.062 214.04,231.405C214.064,231.929 213.251,232.009 213.227,231.482Z"/>
                    </g>
                    <g transform="matrix(-4.73524,5.73391,-5.73391,-4.73524,2866.56,297.192)">
                        <path d="M208.019,230.14C208.784,229.305 209.044,228.095 208.947,226.982C209.06,227.103 209.17,227.223 209.283,227.345C208.224,227.252 207,227.502 206.204,228.232C205.395,228.972 205.184,230.342 205.273,231.39C205.162,231.269 205.05,231.148 204.938,231.027C205.998,231.119 207.222,230.869 208.019,230.14C208.4,229.789 209.03,230.313 208.64,230.669C207.608,231.615 206.176,231.951 204.796,231.831C204.618,231.816 204.475,231.636 204.461,231.468C204.347,230.143 204.671,228.697 205.582,227.703C206.499,226.702 208.129,226.428 209.425,226.541C209.603,226.556 209.745,226.736 209.761,226.905C209.876,228.228 209.552,229.675 208.64,230.669C208.287,231.056 207.661,230.53 208.019,230.14Z"/>
                    </g>
                    <g transform="matrix(-4.73524,5.73391,-5.73391,-4.73524,2866.56,297.192)">
                        <path d="M214.952,230.717C214.004,229.682 213.67,228.251 213.79,226.872C213.804,226.695 213.985,226.551 214.153,226.536C215.476,226.421 216.924,226.744 217.917,227.656C218.918,228.574 219.192,230.203 219.08,231.5C219.064,231.679 218.885,231.821 218.717,231.835C217.392,231.951 215.946,231.627 214.952,230.717C214.565,230.361 215.09,229.736 215.48,230.093C216.316,230.858 217.526,231.119 218.638,231.022C218.519,231.134 218.396,231.246 218.275,231.358C218.368,230.3 218.117,229.075 217.39,228.279C216.647,227.47 215.278,227.259 214.229,227.349C214.351,227.238 214.473,227.126 214.593,227.014C214.502,228.073 214.75,229.297 215.48,230.093C215.832,230.475 215.307,231.104 214.952,230.717Z"/>
                    </g>
                </g>
            </g>
        </g>
    </g>
</svg>
