<?xml version="1.0" encoding="UTF-8" standalone="no"?>
<!DOCTYPE svg PUBLIC "-//W3C//DTD SVG 1.1//EN" "http://www.w3.org/Graphics/SVG/1.1/DTD/svg11.dtd">
<svg width="100%" height="100%" viewBox="0 0 260 280" version="1.1" xmlns="http://www.w3.org/2000/svg" xmlns:xlink="http://www.w3.org/1999/xlink" xml:space="preserve" xmlns:serif="http://www.serif.com/" style="fill-rule:evenodd;clip-rule:evenodd;stroke-linecap:round;stroke-linejoin:round;stroke-miterlimit:1.5;">
    <g transform="matrix(1,0,0,1,0,-9.90343)">
        <g transform="matrix(1.26539,0,0,1.26539,-33.1782,-27.5036)">
            <path d="M160.778,144.903L153.152,132.918L136.265,144.903L136.265,174.864L178.21,174.864L169.494,158.521L153.152,158.521" style="fill:none;stroke:black;stroke-width:6.12px;"/>
            <path d="M111.206,119.844L128.955,89.883L146.07,119.844L130,132.918L111.206,119.844Z" style="fill:none;stroke:black;stroke-width:6.12px;"/>
            <g transform="matrix(1,0,0,1,-1,0)">
                <path d="M122.101,162.335L122.101,174.864L80.7,174.864L105.759,132.918" style="fill:none;stroke:black;stroke-width:6.12px;"/>
            </g>
        </g>
        <g transform="matrix(1,0,0,1,30.3662,2)">
            <text x="22.412px" y="211.362px" style="font-family:'ArialRoundedMTBold', 'Arial Rounded MT Bold', sans-serif;font-size:17.333px;">OGID<tspan x="67.464px 79.931px " y="211.362px 211.362px ">AR</tspan>A DESIGN</text>
        </g>
    </g>
</svg>
